<?xml version="1.0" encoding="utf-8"?>
<!-- Generator: Adobe Illustrator 22.0.1, SVG Export Plug-In . SVG Version: 6.00 Build 0)  -->
<svg version="1.1" id="레이어_1" xmlns="http://www.w3.org/2000/svg" xmlns:xlink="http://www.w3.org/1999/xlink" x="0px"
	 y="0px" viewBox="0 0 150 150" style="enable-background:new 0 0 150 150;" xml:space="preserve">
<style type="text/css">
	.st0{fill:#02061E;}
</style>
<g>
	<polygon class="st0" points="117.3,138.7 96.7,127.7 89.7,150 74.8,132 59.9,149.9 53.1,127.6 32.4,138.4 34.6,115.2 11.3,117.3 
		22.3,96.7 0,89.7 18,74.8 0.1,59.9 22.4,53.1 11.6,32.4 34.8,34.6 32.7,11.3 53.3,22.3 60.3,0 75.2,18 90.1,0.1 96.9,22.4 
		117.6,11.6 115.4,34.8 138.7,32.7 127.7,53.3 150,60.3 132,75.2 149.9,90.1 127.6,96.9 138.4,117.6 115.2,115.4 	"/>
</g>
</svg>
