<?xml version="1.0" encoding="utf-8"?>
<!-- Generator: Adobe Illustrator 22.0.1, SVG Export Plug-In . SVG Version: 6.00 Build 0)  -->
<svg version="1.1" id="레이어_1" xmlns="http://www.w3.org/2000/svg" xmlns:xlink="http://www.w3.org/1999/xlink" x="0px"
	 y="0px" viewBox="0 0 150 150" style="enable-background:new 0 0 150 150;" xml:space="preserve">
<style type="text/css">
	.st0{fill:#02061E;}
</style>
<polygon class="st0" points="121.1,134.3 109.3,132.3 105.5,143.6 94.6,138.8 88.2,148.9 78.7,141.6 70.1,150 62.7,140.6 
	52.3,146.6 47.3,135.7 35.9,139.1 33.6,127.4 21.6,127.9 22.3,115.9 10.5,113.6 14,102.1 3.2,97 9.3,86.7 0,79.2 8.4,70.7 1.2,61.1 
	11.4,54.9 6.6,43.9 18,40.2 16.1,28.4 28,27.6 28.9,15.7 40.7,17.7 44.5,6.4 55.4,11.2 61.8,1.1 71.3,8.4 79.9,0 87.3,9.4 97.7,3.4 
	102.7,14.3 114.1,10.9 116.4,22.6 128.4,22.1 127.7,34.1 139.5,36.4 136,47.9 146.8,53 140.7,63.3 150,70.8 141.6,79.3 148.8,88.9 
	138.6,95.1 143.4,106.1 132,109.8 133.9,121.6 122,122.4 "/>
</svg>
